<?xml version="1.0" standalone="no"?>
<!DOCTYPE svg PUBLIC "-//W3C//DTD SVG 20010904//EN"
 "http://www.w3.org/TR/2001/REC-SVG-20010904/DTD/svg10.dtd">
<svg version="1.0" xmlns="http://www.w3.org/2000/svg"
 width="2400.000000pt" height="2600.000000pt" viewBox="0 0 2400.000000 2600.000000"
 preserveAspectRatio="xMidYMid meet">

<g transform="translate(0.000000,2600.000000) scale(0.100000,-0.100000)"
fill="#000000" stroke="none">
<path d="M13910 22845 c-8 -2 -49 -9 -90 -15 -221 -36 -466 -169 -620 -338
-217 -237 -330 -561 -301 -862 9 -88 69 -367 105 -486 9 -29 74 -168 145 -310
79 -159 132 -276 136 -304 3 -25 20 -85 37 -135 23 -67 32 -113 36 -180 4 -99
-21 -224 -151 -754 l-62 -254 -32 -14 c-18 -7 -40 -24 -48 -37 -15 -22 -92
-278 -186 -616 -35 -122 -40 -155 -36 -210 5 -64 5 -65 -74 -221 -121 -243
-143 -329 -128 -514 l6 -90 -62 -175 c-71 -199 -86 -245 -190 -611 l-76 -264
-52 -45 c-168 -145 -228 -214 -302 -351 -38 -72 -45 -80 -45 -54 -1 42 -33
109 -80 165 -38 45 -40 51 -40 113 0 119 -15 135 -176 178 -59 15 -107 30
-108 31 -17 41 -44 68 -95 96 -38 21 -98 70 -163 135 -116 115 -193 161 -334
198 -297 79 -598 -9 -856 -250 -224 -209 -338 -465 -338 -755 1 -255 95 -422
390 -689 l84 -76 -21 -38 c-11 -21 -31 -69 -43 -108 -33 -103 -45 -122 -129
-208 -118 -122 -187 -173 -246 -182 -126 -18 -248 -87 -347 -195 -90 -97 -392
-603 -538 -903 -56 -114 -80 -150 -137 -210 -125 -132 -235 -329 -289 -517
-27 -92 -30 -98 -113 -190 -169 -186 -316 -380 -494 -650 -204 -311 -339 -563
-506 -951 -82 -188 -87 -195 -375 -489 -84 -85 -167 -176 -186 -202 -28 -41
-54 -59 -179 -127 -246 -133 -288 -152 -400 -177 -137 -31 -342 -61 -467 -69
-127 -8 -141 -11 -149 -34 -8 -26 10 -67 37 -85 13 -8 91 -27 173 -41 245 -41
438 -31 651 34 75 24 95 18 77 -22 -12 -25 -149 -101 -264 -146 -104 -41 -135
-101 -76 -145 24 -17 42 -21 110 -21 75 1 102 7 329 83 135 45 253 82 262 82
27 0 18 -38 -25 -111 -45 -75 -61 -147 -39 -174 7 -9 29 -15 53 -15 104 0 171
50 302 224 100 134 129 158 196 160 49 1 51 0 114 -66 75 -79 139 -114 242
-134 101 -19 169 -17 220 5 48 22 66 50 66 104 0 55 -26 76 -129 103 -95 25
-131 51 -165 116 -18 35 -18 39 -1 105 15 57 16 77 6 123 -17 78 -16 196 1
263 43 167 155 412 264 579 117 178 154 216 334 337 493 330 678 530 898 971
42 85 93 189 111 230 l35 75 59 19 c135 42 209 104 262 218 l27 58 46 0 c25 0
66 -3 91 -6 41 -6 46 -10 73 -61 36 -69 192 -308 253 -387 45 -58 45 -60 46
-140 2 -99 26 -153 112 -245 l56 -61 29 -143 c30 -150 52 -230 100 -365 l30
-82 -78 -98 c-43 -53 -94 -120 -113 -148 -33 -49 -37 -51 -99 -62 -81 -14
-180 -62 -220 -108 -44 -50 -86 -137 -107 -224 -14 -62 -18 -126 -20 -371 -3
-321 -4 -326 -61 -404 -16 -22 -72 -72 -124 -111 -86 -65 -103 -74 -193 -98
-55 -15 -114 -35 -131 -46 -45 -28 -104 -94 -148 -166 -30 -48 -55 -73 -120
-117 -202 -137 -465 -366 -727 -633 -246 -250 -449 -500 -579 -710 l-44 -71
-56 -6 c-221 -24 -422 -131 -562 -300 -52 -62 -59 -67 -189 -122 -639 -274
-1283 -660 -1805 -1084 -303 -245 -508 -437 -772 -724 -85 -92 -190 -195 -232
-229 -42 -33 -84 -70 -93 -81 -24 -26 -23 -74 2 -114 l19 -32 -42 -30 c-23
-16 -51 -39 -62 -51 -41 -45 -51 -44 -116 10 -99 82 -153 63 -229 -83 -54
-101 -81 -134 -122 -142 -62 -14 -101 39 -124 168 -23 123 -51 200 -84 232
-26 25 -33 27 -55 17 -16 -7 -34 -30 -47 -58 -23 -54 -20 -87 19 -173 18 -40
25 -77 27 -131 2 -53 11 -94 30 -141 14 -36 26 -77 26 -92 0 -33 -31 -44 -62
-23 -34 24 -66 19 -117 -18 -85 -63 -95 -79 -97 -154 l-1 -67 -118 -57 c-93
-45 -130 -57 -179 -61 -42 -3 -125 -27 -263 -75 -178 -63 -212 -72 -300 -78
-54 -4 -115 -13 -137 -20 -21 -8 -55 -14 -75 -14 -47 0 -186 -27 -214 -41 -56
-30 -190 -134 -239 -188 -86 -92 -99 -174 -44 -284 66 -132 301 -404 416 -481
80 -53 194 -87 315 -93 158 -8 200 3 408 112 78 41 199 75 269 75 26 0 100
-11 164 -25 64 -14 134 -25 157 -25 56 0 158 25 208 51 66 33 174 148 195 206
14 40 24 52 48 59 23 7 40 27 78 90 51 87 93 131 136 139 120 25 184 79 255
214 67 127 136 206 199 227 42 14 52 22 73 63 29 59 87 112 164 150 33 17 62
35 66 41 3 5 27 10 52 10 58 0 117 30 249 126 l105 76 60 -22 c89 -34 139 -32
182 5 228 195 377 311 865 671 271 200 254 188 375 243 83 38 381 198 647 349
297 167 871 557 1160 787 46 37 99 65 182 99 188 75 378 161 794 361 467 224
545 264 874 455 347 201 481 273 862 465 186 94 353 172 388 181 77 20 133 9
220 -42 185 -108 451 -211 725 -279 173 -43 329 -99 645 -232 124 -52 300
-124 393 -159 92 -35 245 -100 340 -145 403 -191 663 -275 1012 -329 77 -12
217 -41 310 -65 94 -24 221 -54 284 -66 97 -18 123 -27 170 -59 31 -21 146
-84 256 -139 134 -67 243 -131 330 -192 183 -130 722 -533 965 -722 113 -89
234 -180 269 -204 112 -77 260 -143 321 -143 31 0 179 -106 536 -382 368 -286
413 -310 567 -309 l88 1 122 -99 c67 -54 135 -117 151 -140 38 -55 240 -248
301 -289 33 -22 54 -46 70 -79 42 -90 237 -323 323 -387 40 -29 49 -42 59 -88
15 -61 126 -291 206 -423 61 -101 98 -131 147 -120 53 12 240 144 365 257 193
176 422 343 615 448 206 112 442 278 648 455 146 125 611 574 663 638 22 29
39 60 39 75 0 36 -97 128 -175 167 -55 27 -69 30 -160 30 -99 0 -101 -1 -195
-47 -52 -25 -143 -78 -202 -117 -188 -123 -222 -135 -470 -151 -141 -10 -203
-9 -390 6 -148 11 -266 14 -351 10 l-128 -6 12 22 c38 72 170 254 248 343 59
66 76 77 214 132 116 46 117 47 117 79 0 48 -22 56 -112 44 -157 -22 -237 -62
-368 -186 -71 -68 -74 -69 -120 -66 -46 4 -49 2 -84 -40 -46 -55 -75 -72 -147
-88 -52 -12 -58 -11 -106 14 -28 14 -82 48 -119 77 -55 41 -72 49 -93 44 -79
-20 -82 -19 -168 45 l-81 61 34 85 c20 50 32 94 29 105 -4 10 -77 66 -163 124
-102 68 -206 150 -297 232 -462 417 -1243 1033 -1895 1494 -305 216 -517 357
-989 656 -89 56 -161 82 -306 108 l-90 17 -150 151 c-82 82 -224 214 -315 292
-446 383 -645 506 -1430 883 l-256 123 37 73 c122 244 -10 467 -394 665 l-90
46 -84 199 -84 200 40 165 c143 584 172 1198 95 1995 -23 236 -62 351 -200
583 -119 200 -152 288 -219 572 -61 258 -75 354 -75 508 0 181 16 253 109 482
170 419 198 538 210 872 9 227 10 238 40 323 36 102 58 224 67 375 4 69 13
118 24 141 86 173 161 422 231 770 l51 255 53 48 c29 26 63 66 74 90 40 83 72
247 111 572 25 213 25 239 -1 292 -20 41 -20 49 -10 181 17 214 70 720 82 792
6 36 22 106 37 155 20 67 26 113 26 180 1 84 -2 94 -36 158 -58 111 -38 131
142 140 277 14 534 128 731 326 446 447 445 1158 0 1601 -215 214 -504 332
-800 329 -53 -1 -103 -3 -111 -4z"/>
</g>
</svg>
