<?xml version="1.0" standalone="no"?>
<!DOCTYPE svg PUBLIC "-//W3C//DTD SVG 20010904//EN"
 "http://www.w3.org/TR/2001/REC-SVG-20010904/DTD/svg10.dtd">
<svg version="1.0" xmlns="http://www.w3.org/2000/svg"
 width="512.000000pt" height="512.000000pt" viewBox="0 0 512.000000 512.000000"
 preserveAspectRatio="xMidYMid meet">

<g transform="translate(0.000000,512.000000) scale(0.100000,-0.100000)"
fill="#000000" stroke="none">
<path d="M1160 4934 c-424 -74 -804 -378 -1010 -809 -261 -546 -173 -1219 219
-1673 181 -209 2077 -2241 2108 -2259 50 -30 116 -30 166 0 31 18 1927 2050
2108 2259 392 454 480 1127 219 1673 -175 366 -478 645 -823 759 -157 53 -274
69 -437 63 -197 -8 -326 -40 -505 -126 -179 -87 -314 -199 -530 -445 -60 -68
-112 -125 -115 -125 -3 0 -54 57 -115 125 -216 246 -351 358 -530 445 -189 90
-307 119 -520 124 -104 3 -176 0 -235 -11z m489 -377 c118 -40 239 -111 329
-193 38 -34 159 -163 270 -286 210 -233 240 -258 312 -258 72 0 102 25 312
258 111 123 232 252 270 286 268 245 661 307 984 156 116 -54 197 -111 294
-210 233 -235 350 -521 350 -855 0 -276 -86 -533 -244 -730 -76 -96 -1954
-2120 -1966 -2120 -12 0 -1890 2024 -1966 2120 -158 197 -244 454 -244 730 0
334 117 620 350 855 172 174 367 270 585 288 124 11 253 -4 364 -41z"/>
</g>
</svg>
