<?xml version="1.0" standalone="no"?>
<!DOCTYPE svg PUBLIC "-//W3C//DTD SVG 20010904//EN"
 "http://www.w3.org/TR/2001/REC-SVG-20010904/DTD/svg10.dtd">
<svg version="1.0" xmlns="http://www.w3.org/2000/svg"
 width="512.000000pt" height="512.000000pt" viewBox="0 0 512.000000 512.000000"
 preserveAspectRatio="xMidYMid meet">

<g transform="translate(0.000000,512.000000) scale(0.100000,-0.100000)"
fill="#000000" stroke="none">
<path d="M1840 5110 c-414 -51 -785 -206 -1093 -458 -96 -79 -258 -248 -330
-344 -228 -305 -368 -666 -407 -1047 -52 -521 112 -1066 447 -1481 72 -89 254
-267 338 -331 534 -408 1226 -534 1858 -338 136 42 306 115 341 147 59 55 71
128 34 202 -47 92 -138 112 -261 59 -601 -264 -1274 -170 -1778 247 -287 238
-488 575 -570 955 -26 120 -37 423 -20 554 37 279 152 564 320 792 36 48 113
135 171 193 521 516 1308 636 1960 299 476 -246 800 -692 890 -1226 29 -169
25 -451 -9 -608 -69 -325 -210 -591 -442 -841 -35 -38 -62 -77 -68 -100 -13
-48 -13 -50 0 -99 9 -34 122 -151 807 -838 537 -537 810 -804 838 -817 76 -37
167 -15 215 51 30 43 37 124 14 170 -9 19 -346 363 -748 766 l-730 731 41 49
c70 84 169 241 231 367 345 701 261 1534 -218 2161 -64 84 -242 266 -331 338
-277 224 -622 376 -985 433 -112 18 -414 26 -515 14z"/>
</g>
</svg>
