<?xml version="1.0" standalone="no"?>
<!DOCTYPE svg PUBLIC "-//W3C//DTD SVG 20010904//EN"
 "http://www.w3.org/TR/2001/REC-SVG-20010904/DTD/svg10.dtd">
<svg version="1.0" xmlns="http://www.w3.org/2000/svg"
 width="512.000000pt" height="512.000000pt" viewBox="0 0 512.000000 512.000000"
 preserveAspectRatio="xMidYMid meet">

<g transform="translate(0.000000,512.000000) scale(0.100000,-0.100000)"
fill="#000000" stroke="none">
<path d="M2325 4950 c-90 -14 -220 -57 -310 -102 -254 -127 -443 -350 -528
-623 -38 -121 -47 -213 -47 -471 l0 -234 -188 0 c-136 0 -204 -4 -247 -15
-206 -53 -350 -217 -376 -426 -17 -141 -121 -2200 -114 -2264 34 -322 261
-574 577 -639 68 -14 235 -16 1468 -16 1513 0 1462 -2 1603 55 183 75 345 247
407 434 47 141 47 133 -14 1286 -30 589 -60 1106 -66 1150 -26 207 -171 368
-379 421 -161 40 -266 -17 -266 -146 0 -93 50 -145 152 -160 33 -4 74 -15 92
-24 42 -22 80 -82 86 -136 3 -25 31 -524 61 -1110 60 -1145 60 -1129 12 -1224
-51 -102 -135 -172 -246 -206 -63 -20 -98 -20 -1442 -20 -1325 0 -1381 1
-1439 19 -150 47 -251 157 -281 307 -10 50 -3 225 44 1124 30 586 58 1085 61
1110 7 60 47 117 98 141 36 16 67 19 217 19 l176 0 12 -44 c35 -134 224 -155
295 -32 9 15 13 143 17 476 l6 455 26 77 c40 120 92 204 182 294 90 90 175
143 294 182 67 22 94 26 212 26 118 0 145 -4 212 -26 119 -39 204 -92 294
-182 90 -90 142 -175 182 -294 24 -73 26 -90 30 -344 l4 -267 -510 -3 c-498
-3 -511 -4 -538 -24 -53 -39 -69 -71 -69 -134 0 -63 16 -95 69 -134 27 -20 40
-21 535 -24 l507 -3 12 -43 c37 -141 242 -154 298 -19 21 48 20 822 -1 948
-67 415 -365 738 -780 846 -92 23 -304 34 -400 19z"/>
</g>
</svg>
